<?xml version="1.0" encoding="UTF-8" standalone="no"?>
<!-- Created with Inkscape (http://www.inkscape.org/) -->

<svg
   xmlns:dc="http://purl.org/dc/elements/1.1/"
   xmlns:cc="http://creativecommons.org/ns#"
   xmlns:rdf="http://www.w3.org/1999/02/22-rdf-syntax-ns#"
   xmlns:svg="http://www.w3.org/2000/svg"
   xmlns="http://www.w3.org/2000/svg"
   xmlns:sodipodi="http://sodipodi.sourceforge.net/DTD/sodipodi-0.dtd"
   xmlns:inkscape="http://www.inkscape.org/namespaces/inkscape"
   width="629.52448"
   height="180.24011"
   viewBox="0 0 166.5617 47.688537"
   version="1.1"
   id="svg5484"
   inkscape:version="0.92.1 r15371"
   sodipodi:docname="logotype color 100px.svg">
  <defs
     id="defs5478" />
  <sodipodi:namedview
     id="base"
     pagecolor="#ffffff"
     bordercolor="#666666"
     borderopacity="1.0"
     inkscape:pageopacity="0.0"
     inkscape:pageshadow="2"
     inkscape:zoom="0.98994949"
     inkscape:cx="335.91014"
     inkscape:cy="128.05514"
     inkscape:document-units="mm"
     inkscape:current-layer="layer1"
     showgrid="false"
     fit-margin-top="0"
     fit-margin-left="0"
     fit-margin-right="0"
     fit-margin-bottom="0"
     units="px"
     inkscape:snap-bbox="true"
     inkscape:snap-bbox-edge-midpoints="true"
     inkscape:window-width="1366"
     inkscape:window-height="713"
     inkscape:window-x="0"
     inkscape:window-y="27"
     inkscape:window-maximized="1" />
  <metadata
     id="metadata5481">
    <rdf:RDF>
      <cc:Work
         rdf:about="">
        <dc:format>image/svg+xml</dc:format>
        <dc:type
           rdf:resource="http://purl.org/dc/dcmitype/StillImage" />
        <dc:title></dc:title>
      </cc:Work>
    </rdf:RDF>
  </metadata>
  <g
     inkscape:label="Layer 1"
     inkscape:groupmode="layer"
     id="layer1"
     transform="translate(5.3640734,-152.95931)">
    <path
       style="fill:#5f8dd3;fill-opacity:1;stroke:none;stroke-width:10.58333302;stroke-linecap:square;stroke-miterlimit:10;stroke-dasharray:none;stroke-opacity:1;paint-order:markers fill stroke"
       d="m 18.215667,163.30981 -0.26448,0.52901 h 0.52896 z m -1.52321,0.0882 c -0.74059,0.0858 -1.46957,0.23381 -2.17966,0.44085 h 1.95921 z m 3.04638,0 0.22039,0.44085 h 1.95926 c -0.71009,-0.20703 -1.43907,-0.35503 -2.17965,-0.44085 z m -6.70673,0.97002 c -0.37409,0.1593 -0.74089,0.33585 -1.09916,0.52916 h 4.00989 l 0.26458,-0.52916 z m 4.6545,0 -0.26459,0.52916 h 1.5873 l -0.26459,-0.52916 z m 2.53721,0 0.26458,0.52916 h 4.00999 c -0.35827,-0.19331 -0.72507,-0.36986 -1.09916,-0.52916 z m -9.18569,1.05833 c -0.25881,0.16715 -0.5121,0.34364 -0.75949,0.52917 h 4.5499 c 0.22523,-0.0721 0.45282,-0.13727 0.68259,-0.19493 l 0.16713,-0.33424 z m 6.11931,0 -0.26458,0.52917 h 2.64562 l -0.26458,-0.52917 z m 3.59554,0 0.16712,0.33424 c 0.22978,0.0577 0.45736,0.12284 0.6826,0.19493 h 4.55001 c -0.24738,-0.18552 -0.5007,-0.36203 -0.75949,-0.52917 z m -11.1347802,1.05833 c -0.1989601,0.17014 -0.3933701,0.34654 -0.5828602,0.52917 h 3.4574804 c 0.3216,-0.19322 0.65237,-0.36978 0.99105,-0.52917 z m 7.0100702,0 -0.26458,0.52917 h 3.70396 l -0.26458,-0.52917 z m 6.31915,0 c 0.33869,0.15939 0.66949,0.33595 0.99111,0.52917 h 3.45746 c -0.18948,-0.18263 -0.38385,-0.35903 -0.58281,-0.52917 z m -14.4313204,1.05834 c -0.1600801,0.17258 -0.3149899,0.34911 -0.4649899,0.52916 h 2.9677403 c 0.2182,-0.18549 0.44292,-0.36192 0.67355,-0.52916 z m 7.5830104,0 -0.26459,0.52916 h 2.11667 l 0.26448,-0.52901 0.26448,0.52901 h 2.11667 l -0.26459,-0.52916 z m 8.63983,0 c 0.23064,0.16724 0.45534,0.34367 0.67355,0.52916 h 2.96773 c -0.15,-0.18005 -0.30491,-0.35658 -0.46498,-0.52916 z m -17.1062003,1.05833 c -0.1301501,0.17352 -0.2558401,0.34996 -0.3769801,0.52917 h 2.67757 c 0.1370604,-0.15321 0.2785104,-0.30311 0.4246304,-0.44923 0.0269,-0.0269 0.0541,-0.0533 0.0813,-0.0799 z m 7.9372003,0 -0.26458,0.52917 h 2.11666 l 0.26459,-0.52917 z m 3.17479,0 0.26459,0.52917 h 2.11666 l -0.26458,-0.52917 z m 7.24737,0 c 0.0271,0.0266 0.0544,0.053 0.0813,0.0799 0.14612,0.14612 0.28758,0.29602 0.42463,0.44923 h 2.67756 c -0.12114,-0.17921 -0.24683,-0.35565 -0.37698,-0.52917 z m -19.0760104,1.05832 c -0.10603,0.17417 -0.20799,0.3506 -0.30572,0.52922 h 2.4860501 c 0.1252998,-0.17993 0.25615,-0.35641 0.39238,-0.52922 z m 8.1246804,0 -0.26463,0.52922 h 2.11667 l 0.26463,-0.52922 z m 4.23313,0 0.26464,0.52922 h 2.11666 l -0.26463,-0.52922 z m 7.66863,0 c 0.13623,0.17281 0.26708,0.34929 0.39238,0.52922 h 2.4861 c -0.0977,-0.17862 -0.19974,-0.35505 -0.30577,-0.52922 z m -20.6064004,1.05839 c -0.0855,0.17459 -0.16716,0.35105 -0.2449,0.52916 h 2.3530401 c 0.0969,-0.17896 0.1986198,-0.35549 0.3054099,-0.52916 z m 8.1754304,0 -0.26459,0.52916 h 2.11667 l 0.26458,-0.52916 z m 5.29156,0 0.26458,0.52916 h 2.11667 l -0.26458,-0.52916 z m 7.87854,0 c 0.10678,0.17367 0.20849,0.3502 0.3054,0.52916 h 2.35304 c -0.0777,-0.17811 -0.1593,-0.35457 -0.24484,-0.52916 z M 5.8735066,171.7764 c -0.0675,0.17495 -0.13106,0.35143 -0.1911,0.52917 h 2.2588401 c 0.0735,-0.17836 0.1516499,-0.35482 0.2343499,-0.52917 z m 8.1088804,0 -0.26457,0.52917 h 2.11665 l 0.26459,-0.52917 z m 6.34989,0 0.26459,0.52917 h 2.11666 l -0.26458,-0.52917 z m 7.92351,0 c 0.0827,0.17435 0.1608,0.35081 0.2343,0.52917 h 2.25883 c -0.06,-0.17774 -0.12359,-0.35422 -0.1911,-0.52917 z m -22.7400405,1.05833 c -0.0511,0.17527 -0.0985,0.35171 -0.1424199,0.52917 h 2.19326 c 0.053,-0.17787 0.1105199,-0.35433 0.1723502,-0.52917 z m 7.9374805,0 -0.26458,0.52917 h 2.11667 l 0.26458,-0.52917 z m 7.40823,0 0.26458,0.52917 h 2.11666 l -0.26457,-0.52917 z m 7.83095,0 c 0.0618,0.17484 0.1193,0.3513 0.17234,0.52917 h 2.19325 c -0.0439,-0.17746 -0.0913,-0.3539 -0.14242,-0.52917 z m -23.4384504,1.05834 c -0.0358,0.17554 -0.0683,0.35194 -0.097,0.52916 h 2.14991 c 0.0344,-0.17749 0.0731,-0.35393 0.11611,-0.52916 z m 7.6701004,0 -0.26459,0.52916 h 2.11667 l 0.26458,-0.52916 z m 8.46656,0 0.26458,0.52916 h 2.11667 l -0.26458,-0.52916 z m 7.61778,0 c 0.043,0.17524 0.0817,0.35167 0.11617,0.52916 h 2.14984 c -0.0287,-0.17722 -0.0612,-0.35362 -0.097,-0.52916 z M 5.0822366,174.9514 c -0.0212,0.17575 -0.0389,0.35219 -0.0531,0.52917 h 2.12468 c 0.0169,-0.17717 0.0382,-0.3536 0.0635,-0.52917 z m 7.3126504,0 -0.26458,0.52917 h 2.11666 l 0.26459,-0.52917 z m 9.5249,0 0.26458,0.52917 h 2.11666 l -0.26458,-0.52917 z m 7.29423,0 c 0.0253,0.17557 0.0466,0.352 0.0635,0.52917 h 2.12467 c -0.0142,-0.17698 -0.0319,-0.35342 -0.0531,-0.52917 z m -24.2167904,1.05833 c -0.007,0.17597 -0.0107,0.35238 -0.0108,0.52917 h 2.11668 c 0,-0.17687 0.004,-0.35329 0.0127,-0.52917 z m 6.8684904,0 -0.26458,0.52917 h 2.11667 l 0.26458,-0.52917 z m 10.58323,0 0.26459,0.52917 h 2.11666 l -0.26458,-0.52917 z m 6.86651,0 c 0.008,0.17588 0.0127,0.3523 0.0127,0.52917 h 2.116669 c -7e-6,-0.17679 -0.004,-0.3532 -0.0108,-0.52917 z m -24.3170404,1.05834 c 0.007,0.17696 0.0182,0.35338 0.0326,0.52916 h 2.12324 c -0.0168,-0.17544 -0.0296,-0.35185 -0.0381,-0.52916 z m 6.3381404,0 -0.26459,0.52916 h 2.11667 l 0.26458,-0.52916 z m 11.64156,0 0.26458,0.52916 h 2.11667 l -0.26458,-0.52916 z m 6.33666,0 c -0.009,0.17732 -0.0214,0.35371 -0.0384,0.52916 h 2.12344 c 0.0145,-0.17577 0.0253,-0.3522 0.0328,-0.52916 z M 5.0850766,178.1264 c 0.0217,0.17721 0.0471,0.35361 0.0759,0.52922 h 2.14633 c -0.0341,-0.17517 -0.0639,-0.35161 -0.0896,-0.52922 z m 5.7223104,0 -0.26464,0.52922 h 2.11667 l 0.26464,-0.52922 z m 12.6999,0 0.26463,0.52922 h 2.11667 l -0.26464,-0.52922 z m 5.70512,0 c -0.0258,0.1776 -0.0558,0.35407 -0.09,0.52922 h 2.14684 c 0.0289,-0.1756 0.0543,-0.35201 0.0761,-0.52922 z m -23.9538505,1.05839 c 0.0366,0.17744 0.0769,0.3538 0.12067,0.52916 h 2.1884501 c -0.0522,-0.1748 -0.10031,-0.35123 -0.14402,-0.52916 z m 5.0196105,0 -0.26458,0.52916 h 2.11666 l 0.26459,-0.52916 z m 13.75833,0 0.26459,0.52916 h 2.11666 l -0.26458,-0.52916 z m 4.96921,0 c -0.0439,0.17794 -0.0921,0.35436 -0.14444,0.52916 h 2.18917 c 0.0438,-0.17535 0.0843,-0.35173 0.12093,-0.52916 z m -23.4830804,1.05833 c 0.0522,0.1777 0.10822,0.35409 0.16774,0.52917 h 2.2530499 c -0.072,-0.17438 -0.1397597,-0.3508 -0.2029899,-0.52917 z m 4.2263701,0 -0.2645899,0.52917 h 2.1166802 l 0.26458,-0.52917 z m 14.8166703,0 0.26458,0.52917 h 2.11667 l -0.26458,-0.52917 z m 4.12244,0 c -0.0634,0.17837 -0.13127,0.3548 -0.20346,0.52917 h 2.25403 c 0.0596,-0.17508 0.11574,-0.35147 0.16805,-0.52917 z m -22.8051904,1.05833 c 0.0691,0.17797 0.14179,0.35448 0.21844,0.52917 h 1.37491 l 0.2645799,-0.52917 z m 3.33691,0 -0.2645899,0.52917 h 2.1166803 l 0.26458,-0.52917 z m 15.8750104,0 0.26458,0.52917 h 2.11667 l -0.26459,-0.52917 z m 3.59564,0 0.26459,0.52917 h 1.37201 c 0.0768,-0.17469 0.14955,-0.35119 0.21874,-0.52917 z m -22.3425704,1.05834 c 0.0879,0.17843 0.17976,0.35484 0.27559,0.52916 h 0.3236 l 0.26458,-0.52916 z m 2.3427502,0 -0.2645802,0.52916 h 2.1166704 l 0.26459,-0.52916 z m 16.9333402,0 0.26459,0.52916 h 2.11666 l -0.26458,-0.52916 z m 3.59565,0 0.26458,0.52916 h 0.31993 c 0.0959,-0.1743 0.18796,-0.35074 0.27595,-0.52916 z m -21.0581603,1.05833 -0.2645802,0.52917 h 2.1166805 l 0.26458,-0.52917 z m 17.9916803,0 0.26458,0.52917 h 2.11667 l -0.26458,-0.52917 z m -18.5208404,1.05833 -0.26459,0.52917 h 2.1166702 l 0.2645899,-0.52917 z m 19.0500104,0 0.26458,0.52917 h 2.11667 l -0.26459,-0.52917 z m -19.5791804,1.05834 -0.26458,0.52921 h 2.1166601 l 0.2645899,-0.52921 z m 3.5957104,0 -0.264641,0.52921 h 2.067011 c -0.27584,-0.16533 -0.54329,-0.34198 -0.80186,-0.52921 z m 14.02231,0 c -0.2593,0.18726 -0.52749,0.36395 -0.8041,0.52921 h 2.07987 l -0.26457,-0.52921 z m 2.49033,0 0.26458,0.52921 h 2.11666 l -0.26457,-0.52921 z m -20.6375204,1.05838 -0.26458,0.52917 h 2.11667 l 0.2645802,-0.52917 z m 3.5956604,0 -0.15255,0.3051 c 0.0961,0.0759 0.19332,0.15064 0.29182,0.22407 h 4.49363 v -0.0143 c -0.45059,-0.14543 -0.8869,-0.31779 -1.30741,-0.51491 z m 12.74962,0 c -0.4153,0.19381 -0.84594,0.36353 -1.29046,0.507 v 0.0222 h 4.48463 c 0.10072,-0.075 0.20011,-0.15126 0.29833,-0.22877 l -0.15023,-0.3004 z m 4.82141,0 0.26458,0.52917 h 2.11667 l -0.26458,-0.52917 z M 4.9864766,187.6515 v 0.52917 h 9.8160804 v -0.52917 z m 16.6423304,0 v 0.52917 h 9.816041 v -0.52917 z m -16.6423304,1.05834 v 0.52916 h 9.8160804 v -0.52916 z m 16.6423304,0 v 0.52916 h 9.816041 v -0.52916 z m -16.6423304,1.05833 v 0.52917 h 9.8160804 v -0.52917 z m 16.6423304,0 v 0.52917 h 9.816041 v -0.52917 z"
       id="path5868"
       inkscape:connector-curvature="0"
       sodipodi:nodetypes="ccccccccccccccccccccccccccccccccccccccccccccccccccccccccccccccccccccccccccccccccscccccccccccccscccccccccccccccccccccccccccccccccccccccccccccccccccccccccccccccccccccccccccccccccccccccccccccccccccccccccccccccccccccccccccccccccccccccccccccccccccccccccccccccccccccccccccccccccccccccccccccccccccccccccccccccccccccccccccccccccccccccccccccccccccccccccccccccccccccccccccccccccccccccccccccccccccccccccccccccccccccccccccccccccccccccccccccccccccccccccccccccccccccc" />
    <g
       transform="translate(-9.5656564,149.94317)"
       style="fill:#ff2a2a"
       id="g5876">
      <path
         style="fill:#ff2a2a;fill-opacity:1;stroke:none;stroke-width:0.26458332px;stroke-linecap:butt;stroke-linejoin:miter;stroke-opacity:1"
         d="m 20.018598,26.747867 1.889209,-0.993048 c 0,0 3.100054,1.292392 6.466907,1.259475 3.778609,-0.03694 7.556833,-1.162592 7.556833,-1.162592 l 1.647006,1.114149 -4.238609,4.117508 -1.283696,-0.605518 3.633095,-3.366665 c 0,0 -4.697866,0.986923 -7.338851,0.993045 -3.732323,0.0087 -6.515347,-1.017266 -6.515347,-1.017266 l 2.591608,2.712711 -1.283694,0.629735 z"
         id="path5870"
         inkscape:connector-curvature="0"
         sodipodi:nodetypes="ccscccccscccc" />
      <path
         inkscape:connector-curvature="0"
         style="fill:#ff2a2a;fill-opacity:1;stroke:none;stroke-width:5.29166651;stroke-linecap:square;stroke-miterlimit:4;stroke-dasharray:none;stroke-opacity:1;paint-order:markers fill stroke"
         d="m 26.562032,18.65813 c 0.462226,0.800599 0.416121,1.891439 0.391689,2.929339 C 25.460005,21.514423 23.27042,21.08658 23.27042,21.08658 l 0.211667,1.88295 c 0,0 1.972241,-0.182267 3.463579,-0.244456 v 4.531504 h 1.671289 v -4.531504 c 1.491338,0.06219 3.46358,0.244456 3.46358,0.244456 L 32.2922,21.08658 c 0,0 -2.187772,0.427738 -3.681241,0.500889 -0.01921,-1.097286 -0.0551,-2.159041 0.38963,-2.929339 z"
         id="path5872"
         sodipodi:nodetypes="ccccccccccccc" />
      <path
         style="fill:#ff2a2a;fill-opacity:1;stroke:none;stroke-width:0.26458332px;stroke-linecap:butt;stroke-linejoin:miter;stroke-opacity:1"
         d="m 17.644977,32.924126 c 0,0 4.652922,-4.006518 9.446044,-3.8753 3.775241,0.10335 6.127819,1.671223 7.241968,1.913428 1.092827,0.237573 3.148681,0.242209 3.148681,0.242209 l -0.920383,1.477458 c 0,0 -0.896398,-0.307511 -1.647006,-0.508635 -0.750604,-0.201124 -4.38972,-1.845625 -7.266186,-2.034533 -3.656924,-0.240164 -6.733334,1.913429 -6.733334,1.913429 0,0 3.027579,-1.065706 5.158994,-0.920384 2.131415,0.145326 5.498547,1.329859 7.048202,1.647005 1.978289,0.404865 3.390886,0.339088 3.390886,0.339088 l -0.411748,1.211032 c 0,0 -1.958388,-0.246367 -3.027581,-0.36331 -1.550119,-0.169543 -4.62441,-1.719666 -7.774821,-1.719666 -3.415106,0 -6.66067,2.470506 -6.66067,2.470506 z"
         id="path5874"
         inkscape:connector-curvature="0"
         sodipodi:nodetypes="cssccsscssccsscc" />
    </g>
    <text
       id="text5880"
       y="181.8624"
       x="41.153294"
       style="font-style:normal;font-variant:normal;font-weight:normal;font-stretch:normal;font-size:9.91670036px;line-height:1.25;font-family:'Doulos SIL Cipher';-inkscape-font-specification:'Doulos SIL Cipher';text-align:center;letter-spacing:0px;word-spacing:0px;text-anchor:middle;fill:#4d4d4d;fill-opacity:1;stroke:none;stroke-width:0.26458332"
       xml:space="preserve"><tspan
         style="font-style:normal;font-variant:normal;font-weight:500;font-stretch:normal;font-size:14.11111069px;font-family:Lato;-inkscape-font-specification:'Lato Medium';text-align:start;text-anchor:start;fill:#4d4d4d;stroke-width:0.26458332"
         y="181.8624"
         x="41.153294"
         id="tspan5878"
         sodipodi:role="line">GKI ADISUCIPTO</tspan></text>
  </g>
</svg>
